{
	"asset":{
		"generator":"Khronos glTF Blender I/O v4.0.44",
		"version":"2.0"
	},
	"scene":0,
	"scenes":[
		{
			"name":"Scene",
			"nodes":[
				0
			]
		}
	],
	"nodes":[
		{
			"mesh":0,
			"name":"LOGO",
			"rotation":[
				0,
				0.7071068286895752,
				0,
				0.7071068286895752
			],
			"scale":[
				3.763753652572632,
				1,
				1
			]
		}
	],
	"materials":[
		{
			"doubleSided":true,
			"name":"outline_material.001",
			"pbrMetallicRoughness":{
				"baseColorFactor":[
					0,
					0,
					0,
					1
				],
				"metallicFactor":0,
				"roughnessFactor":0.5
			}
		},
		{
			"doubleSided":true,
			"name":"inside_material.001",
			"pbrMetallicRoughness":{
				"baseColorFactor":[
					0.6725561618804932,
					0.9734029769897461,
					0.08437035977840424,
					1
				],
				"metallicFactor":0,
				"roughnessFactor":0.5
			}
		}
	],
	"meshes":[
		{
			"name":"NurbsPath.002",
			"primitives":[
				{
					"attributes":{
						"POSITION":0,
						"NORMAL":1,
						"TEXCOORD_0":2
					},
					"indices":3,
					"material":0
				},
				{
					"attributes":{
						"POSITION":4,
						"NORMAL":5,
						"TEXCOORD_0":6
					},
					"indices":7,
					"material":1
				}
			]
		}
	],
	"accessors":[
		{
			"bufferView":0,
			"componentType":5126,
			"count":3260,
			"max":[
				0.11000003665685654,
				2.33078670501709,
				2.3320980072021484
			],
			"min":[
				-0.11000003665685654,
				-2.33078670501709,
				-2.3320980072021484
			],
			"type":"VEC3"
		},
		{
			"bufferView":1,
			"componentType":5126,
			"count":3260,
			"type":"VEC3"
		},
		{
			"bufferView":2,
			"componentType":5126,
			"count":3260,
			"type":"VEC2"
		},
		{
			"bufferView":3,
			"componentType":5123,
			"count":18306,
			"type":"SCALAR"
		},
		{
			"bufferView":4,
			"componentType":5126,
			"count":64,
			"max":[
				0.04663444310426712,
				1.892060399055481,
				1.8931249380111694
			],
			"min":[
				-0.042486522346735,
				-1.892060399055481,
				-1.8931249380111694
			],
			"type":"VEC3"
		},
		{
			"bufferView":5,
			"componentType":5126,
			"count":64,
			"type":"VEC3"
		},
		{
			"bufferView":6,
			"componentType":5126,
			"count":64,
			"type":"VEC2"
		},
		{
			"bufferView":7,
			"componentType":5123,
			"count":180,
			"type":"SCALAR"
		}
	],
	"bufferViews":[
		{
			"buffer":0,
			"byteLength":39120,
			"byteOffset":0,
			"target":34962
		},
		{
			"buffer":0,
			"byteLength":39120,
			"byteOffset":39120,
			"target":34962
		},
		{
			"buffer":0,
			"byteLength":26080,
			"byteOffset":78240,
			"target":34962
		},
		{
			"buffer":0,
			"byteLength":36612,
			"byteOffset":104320,
			"target":34963
		},
		{
			"buffer":0,
			"byteLength":768,
			"byteOffset":140932,
			"target":34962
		},
		{
			"buffer":0,
			"byteLength":768,
			"byteOffset":141700,
			"target":34962
		},
		{
			"buffer":0,
			"byteLength":512,
			"byteOffset":142468,
			"target":34962
		},
		{
			"buffer":0,
			"byteLength":360,
			"byteOffset":142980,
			"target":34963
		}
	],
	"buffers":[
		{
			"byteLength":143340,
			"uri":"vochlea-logo-smooth.bin"
		}
	]
}
