{
	"asset":{
		"generator":"Khronos glTF Blender I/O v4.0.44",
		"version":"2.0"
	},
	"scene":0,
	"scenes":[
		{
			"name":"Scene",
			"nodes":[
				0
			]
		}
	],
	"nodes":[
		{
			"mesh":0,
			"name":"Cylinder.003",
			"rotation":[
				-0.5,
				0.5,
				-0.5,
				0.5000000596046448
			],
			"scale":[
				2.33078670501709,
				0.2845418155193329,
				2.3320980072021484
			]
		}
	],
	"materials":[
		{
			"doubleSided":true,
			"name":"inside_material",
			"pbrMetallicRoughness":{
				"baseColorFactor":[
					0.6725561618804932,
					0.9734029769897461,
					0.08437035977840424,
					1
				],
				"metallicFactor":0,
				"roughnessFactor":0.5
			}
		},
		{
			"doubleSided":true,
			"name":"outline_material",
			"pbrMetallicRoughness":{
				"baseColorFactor":[
					0,
					0,
					0,
					1
				],
				"metallicFactor":0,
				"roughnessFactor":0.5
			}
		}
	],
	"meshes":[
		{
			"name":"Cylinder.003",
			"primitives":[
				{
					"attributes":{
						"POSITION":0,
						"NORMAL":1,
						"TEXCOORD_0":2
					},
					"indices":3,
					"material":0
				},
				{
					"attributes":{
						"POSITION":4,
						"NORMAL":5,
						"TEXCOORD_0":6
					},
					"indices":7,
					"material":1
				}
			]
		}
	],
	"accessors":[
		{
			"bufferView":0,
			"componentType":5126,
			"count":64,
			"max":[
				0.833206057548523,
				0.6168528199195862,
				0.8567026853561401
			],
			"min":[
				-0.833206057548523,
				-0.56198650598526,
				-0.8567026853561401
			],
			"type":"VEC3"
		},
		{
			"bufferView":1,
			"componentType":5126,
			"count":64,
			"type":"VEC3"
		},
		{
			"bufferView":2,
			"componentType":5126,
			"count":64,
			"type":"VEC2"
		},
		{
			"bufferView":3,
			"componentType":5123,
			"count":180,
			"type":"SCALAR"
		},
		{
			"bufferView":4,
			"componentType":5126,
			"count":1810,
			"max":[
				1,
				1.0801289081573486,
				1
			],
			"min":[
				-1,
				-1.0870414972305298,
				-1
			],
			"type":"VEC3"
		},
		{
			"bufferView":5,
			"componentType":5126,
			"count":1810,
			"type":"VEC3"
		},
		{
			"bufferView":6,
			"componentType":5126,
			"count":1810,
			"type":"VEC2"
		},
		{
			"bufferView":7,
			"componentType":5123,
			"count":7848,
			"type":"SCALAR"
		}
	],
	"bufferViews":[
		{
			"buffer":0,
			"byteLength":768,
			"byteOffset":0,
			"target":34962
		},
		{
			"buffer":0,
			"byteLength":768,
			"byteOffset":768,
			"target":34962
		},
		{
			"buffer":0,
			"byteLength":512,
			"byteOffset":1536,
			"target":34962
		},
		{
			"buffer":0,
			"byteLength":360,
			"byteOffset":2048,
			"target":34963
		},
		{
			"buffer":0,
			"byteLength":21720,
			"byteOffset":2408,
			"target":34962
		},
		{
			"buffer":0,
			"byteLength":21720,
			"byteOffset":24128,
			"target":34962
		},
		{
			"buffer":0,
			"byteLength":14480,
			"byteOffset":45848,
			"target":34962
		},
		{
			"buffer":0,
			"byteLength":15696,
			"byteOffset":60328,
			"target":34963
		}
	],
	"buffers":[
		{
			"byteLength":76024,
			"uri":"vochlea-logo-smooth2.bin"
		}
	]
}
